<svg width="113" height="126" viewBox="0 0 113 126" fill="none" xmlns="http://www.w3.org/2000/svg">
<path d="M104.13 90.5C116.93 86.1 114.13 63 104.13 63C81.13 76.5 74.63 65.5625 72.63 66.5C56.63 74 44.63 66.5 44.63 66.5C44.63 66.5 24.2967 72 19.13 70C10.63 93.5 28.13 125.949 61.63 125.949C87.63 125.949 104.13 105.5 104.13 90.5Z" fill="#BCB08F"/>
<path d="M26 19.9999C-10.8 18.7999 -2.50001 63.9999 19.5 70.4999C24.6666 72.4999 45 66.9999 45 66.9999C45 66.9999 57 74.4999 73 66.9999C74.7456 66.1816 79.9193 74.4097 96.5 67.5398C98 70 99.8334 73 100.5 71C102 66.4999 103.107 64.3175 104.5 63.4999L104.5 55C112.5 10.6 51.5 -15.5 45 11C29 7.49995 27.949 20.0635 26 19.9999Z" fill="#432903"/>
<path d="M65 102H39C39 104.907 41.466 110.776 51.3299 110.994C61.1938 111.212 64.5533 105.089 65 102Z" fill="white"/>
<path d="M47 86C47 89.866 43.4183 93 39 93C34.5817 93 31 89.866 31 86C31 82.134 34.5817 79 39 79C43.4183 79 47 82.134 47 86Z" fill="black"/>
<ellipse cx="40" cy="82.5" rx="3" ry="2.5" fill="#C4C4C4"/>
<path d="M72 86C72 89.866 68.4183 93 64 93C59.5817 93 56 89.866 56 86C56 82.134 59.5817 79 64 79C68.4183 79 72 82.134 72 86Z" fill="black"/>
<ellipse cx="65" cy="82.5" rx="3" ry="2.5" fill="#C4C4C4"/>
</svg>
